<mxfile host="app.diagrams.net" modified="2023-11-26T05:23:05.651Z" agent="Mozilla/5.0 (Windows NT 10.0; Win64; x64) AppleWebKit/537.36 (KHTML, like Gecko) Chrome/119.0.0.0 Safari/537.36" version="22.1.4" etag="sqNAbHokzsZwRG2ZBVn7" type="github">
  <diagram name="Halaman-1" id="usCzO590xzlFqXNN8O2b">
    <mxGraphModel>
      <root>
        <mxCell id="0" />
        <mxCell id="1" parent="0" />
      </root>
    </mxGraphModel>
  </diagram>
</mxfile>
